<?xml version="1.0" encoding="UTF-8" standalone="no"?>
<!-- Created with Inkscape (http://www.inkscape.org/) -->

<svg
   xmlns:dc="http://purl.org/dc/elements/1.1/"
   xmlns:cc="http://creativecommons.org/ns#"
   xmlns:rdf="http://www.w3.org/1999/02/22-rdf-syntax-ns#"
   xmlns:svg="http://www.w3.org/2000/svg"
   xmlns="http://www.w3.org/2000/svg"
   version="1.1"
   width="1400"
   height="1400"
   id="svg2">
  <defs
     id="defs4" />
  <metadata
     id="metadata7">
    <rdf:RDF>
      <cc:Work
         rdf:about="">
        <dc:format>image/svg+xml</dc:format>
        <dc:type
           rdf:resource="http://purl.org/dc/dcmitype/StillImage" />
        <dc:title></dc:title>
      </cc:Work>
    </rdf:RDF>
  </metadata>
  <g
     transform="translate(402.85712,296.20923)"
     id="layer1">
    <g
       transform="translate(0,-3e-5)"
       id="g2996">
      <path
         d="m -402.85712,403.79077 0,-700 700,0 700,0 0,700 0,700.00003 -700,0 -700,0 0,-700.00003 z"
         id="path3006"
         style="fill:#ddad67" />
      <path
         d="m -402.85712,403.79077 0,-700 700,0 700,0 0,700 0,700.00003 -700,0 -700,0 0,-700.00003 z m 505.50355,-85.99645 -16.9818,-17.00386 -16.76087,16.73912 c -9.21849,9.20652 -16.76088,17.17898 -16.76088,17.71658 0,0.53759 7.43174,8.40919 16.51498,17.49243 l 16.51498,16.51497 17.22769,-17.22769 17.22769,-17.22769 -16.98179,-17.00386 z m 425.24645,33.75036 c 8.3875,-8.46965 15.25,-15.82161 15.25,-16.33767 0,-0.51607 -7.54239,-8.47091 -16.76088,-17.67743 l -16.76087,-16.73912 -16.97809,17.00015 -16.9781,17.00016 16.9176,16.93958 c 13.09849,13.11551 17.27233,16.74478 18.48897,16.07665 0.86425,-0.47462 8.43387,-7.79266 16.82137,-16.26232 z"
         id="path3004"
         style="fill:#ca9f80" />
      <path
         d="m -402.85712,403.79077 0,-700 700,0 700,0 0,700 0,700.00003 -700,0 -700,0 0,-700.00003 z m 665,71.5 c 18.96902,-18.975 34.9392,-34.5 35.48928,-34.5 0.55009,0 16.57862,15.5737 35.61897,34.60822 30.20913,30.19988 34.85911,34.47536 36.50528,33.56522 1.03756,-0.57365 24.83007,-24.02633 52.87226,-52.11708 l 50.98579,-51.07407 -34.73579,-34.74643 c -19.10469,-19.11053 -34.73579,-35.42153 -34.73579,-36.24666 0,-0.82513 15.3,-16.79527 34,-35.4892 18.7,-18.69393 34,-34.44307 34,-34.99809 0,-0.55502 -23.39961,-24.40548 -51.99912,-53.00103 l -51.99913,-51.99192 -34.75616,34.74552 c -19.11588,19.11004 -35.2014,34.74552 -35.74559,34.74552 -0.54419,0 -16.62971,-15.63548 -35.74559,-34.74552 L 227.14113,159.29973 175.142,211.29165 c -28.59951,28.59555 -51.99912,52.44601 -51.99912,53.00103 0,0.55502 15.3,16.30416 34,34.99809 18.7,18.69393 34,34.66407 34,35.4892 0,0.82513 -15.63387,17.1389 -34.74194,36.25281 l -34.74194,34.75258 52.00271,52.00271 c 28.60148,28.60148 52.4503,52.0027 52.99737,52.0027 0.54707,0 16.51478,-15.525 35.4838,-34.5 z M 102.64643,317.79432 85.66463,300.79046 68.90376,317.52958 c -9.21849,9.20652 -16.76088,17.17898 -16.76088,17.71658 0,0.53759 7.43174,8.40919 16.51498,17.49243 l 16.51498,16.51497 17.22769,-17.22769 17.22769,-17.22769 -16.98179,-17.00386 z m 425.24645,33.75036 c 8.3875,-8.46965 15.25,-15.82161 15.25,-16.33767 0,-0.51607 -7.54239,-8.47091 -16.76088,-17.67743 l -16.76087,-16.73912 -16.97809,17.00015 -16.9781,17.00016 16.9176,16.93958 c 13.09849,13.11551 17.27233,16.74478 18.48897,16.07665 0.86425,-0.47462 8.43387,-7.79266 16.82137,-16.26232 z"
         id="path3002"
         style="fill:#b4643a" />
      <path
         d="m -402.85712,403.79077 0,-700 700,0 700,0 0,700 0,700.00003 -700,0 -700,0 0,-700.00003 z m 1071.2425,90.25433 c 86.7666,-86.76012 157.7575,-158.19709 157.7575,-158.74882 0,-1.31275 -315.18968,-316.50551 -316.50242,-316.50551 -0.55264,0 -24.40196,23.40041 -52.99849,52.00091 l -51.99371,52.00092 105.24731,105.25085 c 57.88602,57.88797 105.24731,105.92427 105.24731,106.74732 0,0.82305 -47.3613,48.85935 -105.24733,106.74733 l -105.24732,105.25088 52.49375,52.50089 c 28.87157,28.8755 52.717,52.5009 52.98985,52.5009 0.27286,0 71.48696,-70.98555 158.25355,-157.74567 z M 138.64379,598.78986 190.6375,546.78894 85.39019,441.53809 C 27.50417,383.65012 -19.85712,335.61382 -19.85712,334.79077 c 0,-0.82305 47.36129,-48.85935 105.24731,-106.74732 L 190.6375,122.7926 138.64379,70.79168 C 110.04726,42.19118 86.199,18.79077 85.64767,18.79077 c -1.30916,0 -316.50479,315.1885 -316.50479,316.49763 0,1.63607 314.36375,315.50237 316.00242,315.50237 0.82763,0 24.90196,-23.40041 53.49849,-52.00091 z M 263.13728,476.35298 c 18.42192,-18.45922 33.93845,-33.56221 34.48118,-33.56221 0.54272,0 16.63947,15.62917 35.77056,34.7315 l 34.7838,34.73149 52.98503,-52.97796 c 29.14177,-29.13787 52.98503,-53.42717 52.98503,-53.97621 0,-0.54904 -15.63509,-16.63813 -34.74464,-35.75354 l -34.74465,-34.75528 34.74465,-34.75528 c 19.10955,-19.11541 34.74464,-35.20132 34.74464,-35.74646 0,-1.62973 -104.36444,-105.49826 -106.00194,-105.49826 -0.83,0 -16.80413,15.3 -35.49806,34 -18.69393,18.7 -34.44393,34 -35,34 -0.55607,0 -16.30607,-15.3 -35,-34 -18.69393,-18.7 -34.66486,-34 -35.49095,-34 -1.63759,0 -106.00905,103.86155 -106.00905,105.49115 0,0.54905 15.63509,16.63816 34.74464,35.75357 l 34.74465,34.75528 -34.74465,34.75528 c -19.10955,19.11541 -34.74464,35.20133 -34.74464,35.7465 0,0.54516 23.70756,24.70194 52.68347,53.68171 41.28305,41.28856 53.02245,52.5012 54.25,51.81572 0.86159,-0.48113 16.63901,-15.97778 35.06093,-34.437 z M 103.38216,353.0518 c 9.2184,-9.20643 16.76072,-17.41411 16.76072,-18.23928 0,-1.64399 -32.85976,-35.02175 -34.47825,-35.02175 -1.62091,0 -34.52175,33.3359 -34.52175,34.97825 0,1.64399 32.85976,35.02175 34.47825,35.02175 0.55017,0 8.54263,-7.53254 17.76103,-16.73897 z m 424,0 c 9.2184,-9.20643 16.76072,-17.41411 16.76072,-18.23928 0,-1.64399 -32.85976,-35.02175 -34.47825,-35.02175 -1.62091,0 -34.52175,33.3359 -34.52175,34.97825 0,1.64399 32.85976,35.02175 34.47825,35.02175 0.55017,0 8.54263,-7.53254 17.76103,-16.73897 z"
         id="path3000"
         style="fill:#a4511c" />
      <path
         d="M 714.47648,763.04077 517.31015,762.78577 408.97652,655.27608 C 341.41441,588.2278 300.02802,547.86503 299.00915,548.02856 c -0.89855,0.14422 -48.97944,48.0821 -106.84643,106.52863 -57.86698,58.44658 -105.9568,106.59658 -106.86627,106.99998 -0.90946,0.4035 -111.11607,0.6148 -244.90357,0.4697 l -243.25,-0.2639 0,-528.98611 0,-528.98609 700,0 700,0 0,530 0,530 -42.75,-0.2475 c -23.5125,-0.1361 -131.4749,-0.3622 -239.9164,-0.5025 z M 138.88934,600.54434 c 28.73945,-28.73553 52.25354,-52.92224 52.25354,-53.74823 0,-0.82599 -47.3617,-48.8651 -105.24822,-106.75357 L -19.35357,334.79077 85.89466,229.539 c 57.88652,-57.88847 105.24822,-105.92438 105.24822,-106.74646 0,-1.63545 -103.86762,-106.00177 -105.49525,-106.00177 -1.30914,0 -318.50475,317.18853 -318.50475,318.49764 0,1.63144 316.36131,317.50236 317.99528,317.50236 0.8237,0 25.01174,-23.51089 53.75118,-52.24643 z M 669.89168,494.54195 c 87.0382,-87.03685 158.2512,-158.69882 158.2512,-159.24882 0,-1.30604 -317.18927,-318.50236 -318.49528,-318.50236 -1.62932,0 -105.50472,104.35778 -105.50472,105.99466 0,0.82599 47.3617,48.8651 105.24822,106.75357 L 614.63928,334.79077 509.3911,440.04254 C 451.50458,497.93101 404.14288,545.96692 404.14288,546.789 c 0,1.95872 104.03665,106.00177 105.99525,106.00177 0.82631,0 72.71542,-71.21197 159.75355,-158.24882 z m -406.7544,-17.18897 c 18.42192,-18.45922 33.94944,-33.56221 34.5056,-33.56221 0.55616,0 16.08368,15.10299 34.5056,33.56221 18.42192,18.45922 34.33838,34.03028 35.36992,34.60236 1.63616,0.90741 8.62351,-5.70338 54.75,-51.79944 29.08096,-29.06178 52.87448,-53.51796 52.87448,-54.34708 0,-0.82912 -15.63509,-17.14736 -34.74464,-36.26277 l -34.74465,-34.75528 34.74465,-34.75528 c 19.10955,-19.11541 34.74464,-35.20133 34.74464,-35.7465 0,-1.62977 -105.3645,-106.49822 -107.00198,-106.49822 -0.82998,0 -16.80409,15.3 -35.49802,34 -18.69393,18.7 -34.44393,34 -35,34 -0.55607,0 -16.30607,-15.3 -35,-34 -18.69393,-18.7 -34.66487,-34 -35.49098,-34 -1.63757,0 -107.00902,104.86154 -107.00902,106.49118 0,0.54904 15.63509,16.63813 34.74464,35.75354 l 34.74465,34.75528 -34.74465,34.75528 c -19.10955,19.11541 -34.74464,35.43365 -34.74464,36.26277 0,0.82912 23.79352,25.2853 52.87448,54.34708 46.12649,46.09606 53.11384,52.70685 54.75,51.79944 1.03154,-0.57208 16.948,-16.14314 35.36992,-34.60236 z M 103.88246,353.55149 c 9.49323,-9.48161 17.26042,-17.91442 17.26042,-18.73958 0,-1.6437 -33.8599,-36.02114 -35.47886,-36.02114 -1.62125,0 -35.52114,34.33672 -35.52114,35.97886 0,1.6437 33.8599,36.02114 35.47886,36.02114 0.55016,0 8.76748,-7.75768 18.26072,-17.23928 z m 424,0 c 9.49323,-9.48161 17.26042,-17.91442 17.26042,-18.73958 0,-1.6437 -33.8599,-36.02114 -35.47886,-36.02114 -1.62125,0 -35.52114,34.33672 -35.52114,35.97886 0,1.6437 33.8599,36.02114 35.47886,36.02114 0.55016,0 8.76748,-7.75768 18.26072,-17.23928 z"
         id="path2998"
         style="fill:#974103" />
    </g>
  </g>
</svg>
